<svg width="32" height="32" viewBox="0 0 32 32" fill="none" xmlns="http://www.w3.org/2000/svg">
<g clip-path="url(#clip0)">
<path d="M1.65355 32.0001C1.23203 32.0001 0.810511 31.8398 0.490252 31.5171C-0.152675 30.8742 -0.152675 29.8318 0.490252 29.1889L29.197 0.482199C29.8399 -0.160728 30.8822 -0.160728 31.5252 0.482199C32.1681 1.12513 32.1681 2.16747 31.5252 2.8108L2.81886 31.5171C2.49619 31.8377 2.07467 32.0001 1.65355 32.0001Z" fill="#E6D5B8"/>
<path d="M30.3623 32.0001C29.9408 32.0001 29.5196 31.8398 29.199 31.5171L0.490252 2.8108C-0.152675 2.16747 -0.152675 1.12513 0.490252 0.482199C1.13318 -0.160728 2.17553 -0.160728 2.81886 0.482199L31.5252 29.1889C32.1681 29.8318 32.1681 30.8742 31.5252 31.5171C31.2025 31.8377 30.7814 32.0001 30.3623 32.0001Z" fill="#E6D5B8"/>
</g>
<defs>
<clipPath id="clip0">
<rect width="32" height="32" fill="white"/>
</clipPath>
</defs>
</svg>
 