<svg width="227" height="42" viewBox="0 0 227 42" fill="none" xmlns="http://www.w3.org/2000/svg">
<path d="M22.2206 29.52C21.5166 33.232 20.2366 36.08 18.3806 38.064C16.5246 40.048 14.2206 41.04 11.4686 41.04C8.87657 41.04 6.55657 40.016 4.50857 37.968C2.46057 35.952 1.27657 33.536 0.956566 30.72C1.91657 29.888 2.98857 29.232 4.17257 28.752C5.35657 28.24 6.66857 27.888 8.10857 27.696C8.55657 30.608 8.98857 32.528 9.40457 33.456C9.85257 34.384 10.4286 34.848 11.1326 34.848C12.0926 34.848 12.7806 34.176 13.1966 32.832C13.6126 31.456 13.8206 29.296 13.8206 26.352C13.8206 23.024 13.6926 19.264 13.4366 15.072C13.1806 10.88 12.8286 7.056 12.3806 3.6C13.1166 3.088 14.0766 2.688 15.2606 2.4C16.4446 2.112 17.6766 1.968 18.9566 1.968C19.8526 1.968 20.6686 2.016 21.4046 2.112C22.1406 2.208 22.8766 2.352 23.6126 2.544C23.6446 3.536 23.6766 4.656 23.7086 5.904C23.7406 7.12 23.7566 8.416 23.7566 9.792C23.7566 14.08 23.6446 17.68 23.4206 20.592C23.1966 23.472 22.7966 26.448 22.2206 29.52Z" fill="#E6D5B8"/>
<path d="M48.4586 20.4C49.1946 21.424 49.7386 22.512 50.0906 23.664C50.4426 24.784 50.6186 26 50.6186 27.312C50.6186 30.608 49.4346 33.344 47.0666 35.52C44.6986 37.664 41.7866 38.736 38.3306 38.736C34.5226 38.736 31.3386 37.568 28.7786 35.232C26.2506 32.864 24.9866 30.064 24.9866 26.832C26.0106 26.32 27.2426 25.888 28.6826 25.536C30.1546 25.152 31.3706 24.96 32.3306 24.96C32.3306 27.392 32.7786 29.36 33.6746 30.864C34.6026 32.336 35.8506 33.072 37.4186 33.072C38.5386 33.072 39.4026 32.768 40.0106 32.16C40.6186 31.52 40.9226 30.656 40.9226 29.568C40.9226 28.64 40.6026 27.744 39.9626 26.88C39.3546 25.984 37.9786 24.72 35.8346 23.088C34.2346 21.872 33.0506 20.896 32.2826 20.16C31.5146 19.424 30.8586 18.704 30.3146 18C29.5466 16.912 28.9706 15.792 28.5866 14.64C28.2026 13.456 28.0106 12.192 28.0106 10.848C28.0106 7.648 29.1466 5.04 31.4186 3.024C33.7226 1.008 36.7306 0 40.4426 0C43.7386 0 46.3786 0.800001 48.3626 2.4C50.3786 3.968 51.7066 6.304 52.3466 9.408C51.4186 10.016 50.3626 10.496 49.1786 10.848C47.9946 11.168 46.4426 11.392 44.5226 11.52C44.2346 9.536 43.7546 8.112 43.0826 7.248C42.4106 6.384 41.4826 5.952 40.2986 5.952C39.5626 5.952 38.9706 6.192 38.5226 6.672C38.1066 7.12 37.8986 7.728 37.8986 8.496C37.8986 9.552 38.2186 10.56 38.8586 11.52C39.4986 12.48 40.9066 13.776 43.0826 15.408C44.6826 16.592 45.8506 17.536 46.5866 18.24C47.3226 18.944 47.9466 19.664 48.4586 20.4Z" fill="#E6D5B8"/>
<path d="M91.4328 19.92C91.4008 22.96 91.5448 25.952 91.8648 28.896C92.2168 31.808 92.7448 34.672 93.4488 37.488C92.4888 37.744 91.4168 37.952 90.2328 38.112C89.0808 38.272 87.7848 38.384 86.3448 38.448C85.9608 37.648 85.5928 36.832 85.2408 36C84.9208 35.136 84.6168 34.272 84.3288 33.408C83.1128 34.88 81.7368 35.984 80.2008 36.72C78.6648 37.456 76.9528 37.824 75.0648 37.824C71.7688 37.824 69.1448 36.608 67.1928 34.176C65.2728 31.744 64.3128 28.448 64.3128 24.288C64.3128 18.048 65.8168 12.784 68.8248 8.496C71.8328 4.208 75.6248 2.064 80.2008 2.064C83.3688 2.064 85.8968 2.992 87.7848 4.848C89.7048 6.672 90.8088 9.232 91.0968 12.528C89.6888 12.976 88.1848 13.312 86.5848 13.536C85.0168 13.76 83.2888 13.872 81.4008 13.872C81.0168 11.632 80.6008 10.064 80.1528 9.168C79.7048 8.272 79.1288 7.824 78.4248 7.824C77.2088 7.824 76.2328 9.056 75.4968 11.52C74.7608 13.984 74.3928 17.248 74.3928 21.312C74.3928 24.448 74.7128 26.736 75.3528 28.176C75.9928 29.616 77.0168 30.336 78.4248 30.336C79.3208 30.336 80.1368 30.048 80.8728 29.472C81.6088 28.864 82.2008 28.016 82.6488 26.928C82.4888 25.936 82.3448 24.944 82.2168 23.952C82.0888 22.96 81.9928 21.968 81.9288 20.976C83.2088 20.624 84.6008 20.368 86.1048 20.208C87.6408 20.016 89.4168 19.92 91.4328 19.92Z" fill="#E6D5B8"/>
<path d="M132.607 32.064C132.607 32.96 132.607 33.856 132.607 34.752C132.639 35.616 132.687 36.656 132.751 37.872C131.855 38.128 130.639 38.352 129.103 38.544C127.567 38.736 126.143 38.832 124.831 38.832C124.351 35.344 123.919 30.864 123.535 25.392C123.183 19.92 123.007 15.328 123.007 11.616C123.743 11.232 124.783 10.928 126.127 10.704C127.471 10.48 128.847 10.368 130.255 10.368C130.895 10.368 131.519 10.4 132.127 10.464C132.735 10.528 133.343 10.624 133.951 10.752C133.791 11.904 133.679 12.736 133.615 13.248C133.551 13.76 133.503 14.272 133.471 14.784C134.399 13.44 135.455 12.432 136.639 11.76C137.823 11.088 139.119 10.752 140.527 10.752C142.767 10.752 144.463 11.568 145.615 13.2C146.767 14.8 147.343 17.184 147.343 20.352C147.343 22.848 147.135 25.728 146.719 28.992C146.303 32.224 145.871 34.672 145.423 36.336C144.175 36.336 142.799 36.272 141.295 36.144C139.791 35.984 138.063 35.744 136.111 35.424C136.655 32.416 137.071 29.616 137.359 27.024C137.679 24.4 137.839 22.272 137.839 20.64C137.839 19.744 137.711 19.088 137.455 18.672C137.199 18.224 136.799 18 136.255 18C135.647 18 135.055 18.352 134.479 19.056C133.903 19.76 133.391 20.736 132.943 21.984C132.815 24 132.719 25.856 132.655 27.552C132.623 29.216 132.607 30.72 132.607 32.064Z" fill="#E6D5B8"/>
<path d="M185.113 37.296C181.721 37.296 179.145 36.16 177.385 33.888C175.625 31.616 174.745 28.352 174.745 24.096C174.745 21.76 174.985 19.328 175.465 16.8C175.977 14.24 176.473 12.496 176.953 11.568C177.689 11.376 178.425 11.232 179.161 11.136C179.929 11.04 180.633 10.992 181.273 10.992C182.265 10.992 183.113 11.056 183.817 11.184C184.553 11.312 185.113 11.488 185.497 11.712C185.209 13.44 184.985 15.2 184.825 16.992C184.665 18.784 184.585 20.512 184.585 22.176C184.585 25.12 184.761 27.424 185.113 29.088C185.465 30.72 185.961 31.536 186.601 31.536C187.209 31.536 187.689 30.592 188.041 28.704C188.393 26.816 188.569 24.352 188.569 21.312C188.569 19.872 188.505 18.384 188.377 16.848C188.249 15.28 188.121 14.192 187.993 13.584C189.209 13.072 190.713 12.672 192.505 12.384C194.297 12.064 196.041 11.904 197.737 11.904C197.897 12.64 198.009 13.584 198.073 14.736C198.169 15.888 198.217 17.136 198.217 18.48C198.217 24.624 197.113 29.296 194.905 32.496C192.697 35.696 189.433 37.296 185.113 37.296Z" fill="#E6D5B8"/>
<path d="M119.35 28.272C119.35 31.28 118.07 33.92 115.51 36.192C112.95 38.432 109.958 39.552 106.534 39.552C102.982 39.552 100.182 38.672 98.1337 36.912C96.1177 35.184 95.0297 32.688 94.8697 29.424C96.0217 28.848 97.3177 28.432 98.7577 28.176C100.198 27.888 101.83 27.744 103.654 27.744C103.654 29.664 103.99 31.248 104.662 32.496C105.366 33.712 106.166 34.32 107.062 34.32C107.83 34.32 108.422 33.984 108.838 33.312C109.254 32.608 109.462 31.584 109.462 30.24C109.462 28.32 108.822 26.752 107.542 25.536C106.294 24.32 104.518 23.632 102.214 23.472C101.894 22.224 101.686 21.232 101.59 20.496C101.526 19.728 101.494 18.848 101.494 17.856C102.678 17.12 103.782 16.352 104.806 15.552C105.862 14.752 106.838 13.92 107.734 13.056C105.846 13.216 103.926 13.456 101.974 13.776C100.022 14.064 98.0537 14.416 96.0697 14.832C95.7497 13.936 95.4937 12.848 95.3017 11.568C95.1417 10.288 95.0617 8.976 95.0617 7.632C97.6857 6.8 101.158 6.096 105.478 5.52C109.83 4.944 113.862 4.64 117.574 4.608C118.022 5.696 118.358 6.928 118.582 8.304C118.838 9.68 118.966 11.12 118.966 12.624C117.366 14.384 116.006 15.744 114.886 16.704C113.798 17.664 112.518 18.672 111.046 19.728C113.862 20.56 115.942 21.68 117.286 23.088C118.662 24.464 119.35 26.192 119.35 28.272Z" fill="#1F6F8B"/>
<path d="M165.951 38.208C165.311 38.496 164.543 38.72 163.647 38.88C162.783 39.04 161.839 39.12 160.815 39.12C160.175 39.12 159.631 39.088 159.183 39.024C158.767 38.992 158.351 38.912 157.935 38.784C157.871 38.336 157.823 37.808 157.791 37.2C157.791 36.624 157.791 35.696 157.791 34.416C157.791 32.176 157.935 29.568 158.223 26.592C158.543 23.584 159.007 20.304 159.615 16.752C159.551 16.784 158.991 17.152 157.935 17.856C156.911 18.56 156.063 19.104 155.391 19.488C154.239 18.624 153.215 17.6 152.319 16.416C151.455 15.232 150.735 13.904 150.159 12.432C153.103 11.12 155.919 9.696 158.607 8.16C161.295 6.592 163.823 4.928 166.191 3.168C167.343 3.552 168.399 4.048 169.359 4.656C170.319 5.264 171.167 5.984 171.903 6.816C170.751 9.792 169.583 14.288 168.399 20.304C167.247 26.288 166.431 32.256 165.951 38.208Z" fill="#1F6F8B"/>
<path d="M224.992 26.208C224.992 29.76 223.808 32.72 221.44 35.088C219.072 37.424 216.016 38.592 212.272 38.592C208.56 38.592 205.616 37.6 203.44 35.616C201.296 33.6 200.128 30.736 199.936 27.024C201.44 27.024 202.96 27.12 204.496 27.312C206.064 27.504 207.648 27.792 209.248 28.176C209.248 29.84 209.504 31.12 210.016 32.016C210.528 32.912 211.248 33.36 212.176 33.36C213.136 33.36 213.856 32.992 214.336 32.256C214.848 31.52 215.104 30.432 215.104 28.992C215.104 27.232 214.592 25.792 213.568 24.672C212.576 23.52 211.232 22.944 209.536 22.944C209.056 22.944 208.544 22.992 208 23.088C207.488 23.184 206.928 23.328 206.32 23.52C205.84 23.2 205.232 22.704 204.496 22.032C203.792 21.36 203.312 20.832 203.056 20.448C203.024 20.064 202.992 19.648 202.96 19.2C202.96 18.72 202.96 18.016 202.96 17.088C202.96 15.168 203.056 13.104 203.248 10.896C203.44 8.656 203.744 6.224 204.16 3.6C207.872 4.4 211.376 4.976 214.672 5.328C217.968 5.648 221.776 5.808 226.096 5.808C226.096 7.312 225.968 8.752 225.712 10.128C225.488 11.504 225.152 12.736 224.704 13.824C222.688 13.792 220.688 13.696 218.704 13.536C216.72 13.344 214.464 13.072 211.936 12.72C211.872 13.904 211.824 14.768 211.792 15.312C211.792 15.856 211.792 16.32 211.792 16.704C212.208 16.608 212.72 16.544 213.328 16.512C213.936 16.448 214.496 16.416 215.008 16.416C217.952 16.416 220.352 17.328 222.208 19.152C224.064 20.976 224.992 23.328 224.992 26.208Z" fill="#1F6F8B"/>
</svg>
